Coordinates
version=1
nRows=12
nColumns=24
inDegrees=yes

Units are S.I. units (second, meters, Newtons, ...)
Angles are in degrees.

endheader
time	pelvis_tilt	pelvis_list	pelvis_rotation	pelvis_tx	pelvis_ty	pelvis_tz	hip_flexion_r	hip_adduction_r	hip_rotation_r	knee_angle_r	ankle_angle_r	subtalar_angle_r	mtp_angle_r	hip_flexion_l	hip_adduction_l	hip_rotation_l	knee_angle_l	ankle_angle_l	subtalar_angle_l	mtp_angle_l	lumbar_extension	lumbar_bending	lumbar_rotation
      1.14450000	     -1.03648897	      1.09817167	     -1.66334454	      0.23634694	      1.07169138	      0.27162728	     15.15434223	     -6.84047279	     -9.41842343	    -70.97625523	      2.55371657	     -4.94478310	      4.30398268	     13.57904177	      1.04465964	      3.98182114	    -23.38324696	     14.38169278	      4.42683429	     -0.67384534	     -6.21637128	     -3.68018451	      1.43274953
      1.14866667	     -1.05787147	      0.91631421	     -1.72571107	      0.24185564	      1.07316725	      0.27170620	     15.73591305	     -6.58441454	     -9.49967667	    -70.78667208	      2.84457532	     -4.60729597	      4.28662389	     12.99833489	      0.81437533	      3.89067742	    -22.83673857	     14.37968155	      4.51171834	     -0.66515984	     -6.20015220	     -3.48468804	      1.39461601
      1.15283333	     -1.07056183	      0.73436662	     -1.77342004	      0.24736177	      1.07461969	      0.27176631	     16.28732885	     -6.32998901	     -9.60164208	    -70.52740025	      3.13672309	     -4.25116366	      4.27245066	     12.40755003	      0.58845164	      3.81154593	    -22.28441217	     14.37476825	      4.59904048	     -0.65419955	     -6.19429258	     -3.28517101	      1.33986355
      1.15700000	     -1.07689253	      0.56351057	     -1.80221310	      0.25286929	      1.07602917	      0.27178298	     16.81359950	     -6.09611892	     -9.72893607	    -70.20824407	      3.43365770	     -3.88565629	      4.25920267	     11.81100550	      0.38093209	      3.74580337	    -21.72754482	     14.37178158	      4.68268017	     -0.63863225	     -6.19015714	     -3.09355953	      1.26133735
      1.16116667	     -1.10189770	      0.38503873	     -1.82937097	      0.25835196	      1.07736118	      0.27182260	     17.34679657	     -5.84422758	     -9.85437322	    -69.82595931	      3.69892819	     -3.57167166	      4.25758632	     11.24156075	      0.16313447	      3.67766025	    -21.17845890	     14.32604699	      4.74528282	     -0.62946583	     -6.18494212	     -2.89268171	      1.19812439
      1.16533333	     -1.12127324	      0.21196622	     -1.83637959	      0.26385995	      1.07865081	      0.27181188	     17.85109100	     -5.60920970	    -10.01207680	    -69.38056662	      3.96238293	     -3.26976808	      4.26141114	     10.66550211	     -0.04345618	      3.61785812	    -20.62383771	     14.29280350	      4.81259956	     -0.62207943	     -6.15130195	     -2.67547575	      1.13346452
      1.16950000	     -1.11556884	      0.05723934	     -1.81450508	      0.26932256	      1.07992189	      0.27173712	     18.31012737	     -5.40767696	    -10.19180891	    -68.88138509	      4.27704296	     -2.87004267	      4.26574505	     10.06906208	     -0.21684042	      3.62210231	    -20.07138731	     14.28468178	      4.86490582	     -0.59967117	     -6.19532939	     -2.50305140	      0.96934064
      1.17366667	     -1.13265382	     -0.11881683	     -1.78607539	      0.27479325	      1.08110063	      0.27165732	     18.77426219	     -5.17819658	    -10.38274277	    -68.31441016	      4.53740312	     -2.57272999	      4.27256834	      9.50649195	     -0.41702050	      3.61121764	    -19.53492052	     14.25648658	      4.91698310	     -0.57916882	     -6.19119364	     -2.28596164	      0.84556955
      1.17783333	     -1.15166161	     -0.29314239	     -1.75160365	      0.28025164	      1.08222959	      0.27158316	     19.22359506	     -4.94725556	    -10.57552697	    -67.68709278	      4.78722233	     -2.31344027	      4.28202759	      8.95341101	     -0.61713835	      3.59160197	    -19.00669325	     14.20283472	      4.97085179	     -0.56688492	     -6.19519149	     -2.08123297	      0.75015903
      1.18200000	     -1.13837212	     -0.44285123	     -1.69084267	      0.28570786	      1.08332314	      0.27143082	     19.62104999	     -4.76647059	    -10.80326741	    -67.02030573	      5.05852286	     -2.02111060	      4.29632367	      8.36653226	     -0.77940203	      3.61551416	    -18.47302906	     14.19175480	      5.00640661	     -0.54373483	     -6.22871196	     -1.87682310	      0.56878122
      1.18616667	     -1.15389422	     -0.59984889	     -1.62352672	      0.29114920	      1.08430474	      0.27128480	     20.03424044	     -4.57177867	    -11.03085359	    -66.29674760	      5.30559244	     -1.78954589	      4.31174041	      7.82438496	     -0.95232019	      3.64000286	    -17.96177475	     14.16203783	      5.03998558	     -0.51946199	     -6.23562047	     -1.67262803	      0.40643184
      1.19033333	     -1.15845084	     -0.74797108	     -1.54628526	      0.29657956	      1.08523461	      0.27111375	     20.41970520	     -4.39229402	    -11.26614947	    -65.52360082	      5.55128819	     -1.58240572	      4.32856675	      7.27626278	     -1.11359773	      3.67407711	    -17.45653788	     14.13444829	      5.06825580	     -0.49421196	     -6.25727436	     -1.47707812	      0.23906721
